<svg version="1.1" id="Layer_1" xmlns="http://www.w3.org/2000/svg" xmlns:xlink="http://www.w3.org/1999/xlink" x="0px" y="0px"
	 width="100%" viewBox="0 0 262 262" enable-background="new 0 0 262 262" xml:space="preserve">
<path fill="#FEFFFE" opacity="1.000000" stroke="none" 
	d="
M46.000000,263.000000 
	C31.007750,263.000000 16.015497,263.000000 1.017435,263.000000 
	C1.011623,175.719528 1.011623,88.439064 1.011623,1.079297 
	C88.235291,1.079297 175.470673,1.079297 262.853027,1.079297 
	C262.853027,88.333145 262.853027,175.666550 262.853027,263.000000 
	C256.932617,263.000000 250.935684,263.000000 244.391052,262.545563 
	C243.640854,258.634308 243.317581,255.178680 243.282974,251.720184 
	C243.263474,249.770615 243.719604,247.816299 244.299225,246.005798 
	C245.501297,247.221481 246.365631,248.295502 247.229950,249.369522 
	C248.189774,247.497070 248.272232,246.189468 247.989563,244.966248 
	C246.034622,236.506241 237.686478,231.359894 228.522278,232.630844 
	C223.002609,233.396347 217.428558,233.769836 211.898376,233.895752 
	C212.048264,232.655304 212.169495,231.836990 212.310593,231.022141 
	C214.790176,216.703278 217.966904,202.458771 219.500854,188.039444 
	C220.467194,178.955826 219.044006,169.607147 218.569672,160.383682 
	C217.859283,146.570465 219.718307,132.586594 213.109161,119.315826 
	C209.324905,111.717285 206.889816,103.432404 200.755524,97.234062 
	C194.485107,90.898170 188.207794,84.526428 181.458603,78.722626 
	C177.238800,75.093918 171.861115,72.827095 167.548035,69.285416 
	C165.174286,67.336220 163.115845,65.974197 160.024506,66.015129 
	C161.354965,62.297768 161.891327,59.154400 161.090500,55.246559 
	C160.048096,50.159740 160.918808,44.701332 160.739609,39.410507 
	C160.603561,35.393234 157.451981,32.470928 153.980194,33.464066 
	C152.259567,33.956268 150.985031,36.008011 149.507111,37.355618 
	C142.537598,31.075266 140.180847,31.412361 134.808746,39.166470 
	C132.343964,36.935867 129.834641,34.664951 126.994667,32.094795 
	C123.706215,35.894039 120.927803,39.104027 118.670815,41.711597 
	C115.921913,39.456078 112.574486,37.305550 110.022423,34.445339 
	C107.542824,31.666330 106.068298,32.939117 104.484528,34.887589 
	C102.432053,37.412697 100.570137,40.092705 98.434578,42.963623 
	C96.121780,36.608860 91.597694,33.734165 85.176208,32.987335 
	C84.174477,45.301601 84.563309,57.102699 89.452271,68.451355 
	C83.117279,71.679611 76.070839,73.610893 71.349556,78.027641 
	C59.174080,89.417732 49.127548,102.660477 43.410702,118.667427 
	C41.236900,124.753983 39.116066,130.860977 37.086643,136.996857 
	C36.209099,139.650085 34.928692,142.426544 35.030289,145.101486 
	C35.411011,155.125488 36.374706,165.125702 36.942673,175.144882 
	C37.261063,180.761398 36.720684,186.465820 37.461018,192.011322 
	C39.214493,205.145798 41.824417,218.168594 43.470684,231.313873 
	C44.786030,241.816772 45.190971,252.433685 46.000000,263.000000 
M195.854080,23.586027 
	C192.402832,19.340986 190.217331,14.690398 191.569626,8.835447 
	C189.854065,8.835447 188.520020,8.835447 187.175507,8.835447 
	C187.596863,21.460136 178.734268,28.345369 170.419861,35.695587 
	C184.794968,36.323483 192.122787,42.559505 189.998459,57.771843 
	C194.514114,54.402012 197.140259,51.888134 196.735199,46.542549 
	C196.399460,42.111603 197.604660,36.995083 202.493271,34.667400 
	C204.643173,33.643738 207.273499,33.629025 210.865570,32.924946 
	C205.559814,29.679487 200.977768,26.876696 195.854080,23.586027 
M225.298737,79.111671 
	C227.356125,73.020370 229.520081,67.050934 238.545837,68.512680 
	C236.752274,66.667923 235.285538,64.973991 233.744186,64.903122 
	C228.804443,64.675995 224.357941,61.103054 223.187729,56.347893 
	C222.369583,53.023369 220.950439,49.821419 219.508942,46.698952 
	C219.249100,46.136139 217.576920,46.225334 217.354767,46.179207 
	C216.760345,49.664585 217.031738,53.244160 215.531204,55.771851 
	C212.603485,60.703682 208.696030,65.055931 205.170425,69.629799 
	C203.773514,71.442032 202.313126,73.205315 200.082916,75.987183 
	C203.714111,75.807480 205.796432,75.245255 207.605347,75.721519 
	C210.383636,76.452972 214.114761,77.169655 215.406662,79.192307 
	C218.097900,83.405884 219.440475,88.477219 221.373383,93.181244 
	C221.891571,94.442291 222.540070,95.649788 223.128769,96.881859 
	C223.735565,96.799393 224.342361,96.716927 224.949158,96.634460 
	C224.949158,94.469231 224.929779,92.303787 224.953598,90.138817 
	C224.991165,86.724968 225.057785,83.311440 225.298737,79.111671 
z"/>
<path fill="#4870FE" opacity="1.000000" stroke="none" 
	d="
M46.466862,263.000000 
	C45.190971,252.433685 44.786030,241.816772 43.470684,231.313873 
	C41.824417,218.168594 39.214493,205.145798 37.461018,192.011322 
	C36.720684,186.465820 37.261063,180.761398 36.942673,175.144882 
	C36.374706,165.125702 35.411011,155.125488 35.030289,145.101486 
	C34.928692,142.426544 36.209099,139.650085 37.086643,136.996857 
	C39.116066,130.860977 41.236900,124.753983 43.410702,118.667427 
	C49.127548,102.660477 59.174080,89.417732 71.349556,78.027641 
	C76.070839,73.610893 83.117279,71.679611 89.739746,68.723694 
	C99.303978,76.108749 110.219376,76.168304 120.823578,76.807144 
	C126.764908,77.165062 132.819382,76.565895 138.756424,75.848251 
	C146.755310,74.881363 154.835068,73.707947 160.076996,66.369972 
	C163.115845,65.974197 165.174286,67.336220 167.548035,69.285416 
	C171.861115,72.827095 177.238800,75.093918 181.458603,78.722626 
	C188.207794,84.526428 194.485107,90.898170 200.755524,97.234062 
	C206.889816,103.432404 209.324905,111.717285 213.109161,119.315826 
	C219.718307,132.586594 217.859283,146.570465 218.569672,160.383682 
	C219.044006,169.607147 220.467194,178.955826 219.500854,188.039444 
	C217.966904,202.458771 214.790176,216.703278 212.310593,231.022141 
	C212.169495,231.836990 212.048264,232.655304 211.723953,234.124756 
	C211.482697,235.522095 211.435272,236.266678 211.219421,237.397842 
	C208.314240,246.184128 210.269516,254.593307 211.000000,263.000000 
	C209.933334,263.000000 208.866653,263.000000 207.378906,262.599548 
	C206.224899,253.665588 205.491974,245.132080 204.877045,237.972321 
	C202.892532,242.354324 200.225876,248.242523 197.559219,254.130737 
	C196.885056,253.938187 196.210876,253.745636 195.536697,253.553085 
	C195.536697,251.949585 195.227386,250.270584 195.596710,248.757202 
	C196.568054,244.776978 197.834625,240.868805 199.174561,236.594574 
	C199.616882,234.894226 199.868240,233.531250 200.118164,232.176102 
	C199.620453,231.814178 199.248779,231.317780 198.829712,231.273895 
	C194.261566,230.795593 189.686020,230.388077 184.966370,229.618362 
	C184.870193,225.919922 185.434158,222.466171 184.817123,219.238144 
	C184.263885,216.343781 182.411148,213.697800 181.080078,210.564911 
	C181.280289,209.467545 181.327576,208.325638 181.814163,208.089691 
	C191.858719,203.218903 199.319839,195.581467 205.265579,186.330887 
	C206.220779,184.844711 206.769318,183.097168 207.505859,181.470459 
	C207.014786,181.203445 206.523712,180.936432 206.032654,180.669418 
	C204.573837,182.500336 203.115036,184.331238 201.182678,186.192459 
	C197.403168,188.137482 194.097198,190.052170 189.865555,192.502975 
	C193.429840,170.307800 195.873520,149.203873 188.929703,127.603081 
	C186.594833,130.397705 184.891907,133.428802 182.330307,135.256287 
	C178.958527,137.661774 174.911652,139.120987 170.896545,140.757187 
	C168.721054,139.659653 166.804077,138.792023 164.613510,137.760071 
	C162.278198,135.741501 160.216461,133.887238 158.057602,131.739563 
	C157.693741,131.142563 157.427017,130.838989 157.037170,130.180344 
	C156.099045,128.874466 155.284012,127.923668 154.407089,126.709633 
	C152.927002,125.189842 151.508789,123.933296 149.436218,122.096977 
	C148.017395,125.152687 146.936371,127.480843 145.643341,130.033737 
	C145.024231,131.171631 144.617126,132.084793 144.080917,133.276474 
	C143.895630,133.959518 143.839432,134.364029 143.527405,134.991791 
	C141.362106,138.290955 139.604980,141.479874 137.455429,144.377701 
	C136.761093,145.313721 134.617218,146.283875 133.847809,145.880722 
	C127.212097,142.403931 120.739136,138.616531 114.066208,134.617615 
	C112.880569,133.262695 111.840744,132.217407 110.813103,131.160248 
	C105.864731,126.069748 101.025970,127.208572 99.987862,134.308807 
	C96.526283,139.669388 99.288406,147.147339 92.346771,151.533936 
	C94.242035,152.517532 95.945099,153.401382 97.648163,154.285233 
	C97.134682,154.955872 96.621208,155.626511 96.107727,156.297165 
	C93.352608,154.844284 90.597488,153.391418 87.593307,151.754700 
	C86.152008,150.603836 84.959770,149.636810 83.570396,148.367004 
	C76.207123,139.656189 73.825760,129.086990 70.420486,118.011032 
	C65.083405,123.384697 61.850254,129.015259 59.584888,135.266556 
	C59.408489,135.753342 59.648804,136.408295 59.749920,136.975372 
	C60.094540,138.908066 60.775734,140.839783 60.754910,142.765686 
	C60.717529,146.223114 59.888592,149.694794 60.060078,153.127075 
	C60.455532,161.042145 60.967911,168.973923 61.983364,176.827759 
	C62.693459,182.319824 64.370369,187.682739 65.475220,193.131760 
	C65.671265,194.098648 65.178978,195.205093 64.617027,196.201721 
	C63.299145,196.083832 62.368771,196.011322 60.926491,195.898895 
	C69.324745,206.702377 79.448929,213.534805 91.861259,217.018097 
	C92.778290,217.275436 93.478325,218.306000 94.150116,219.384079 
	C94.113785,226.222168 94.206558,232.653275 94.152962,239.266876 
	C94.006584,239.449356 93.959496,239.914856 93.547829,239.951294 
	C89.424736,239.992538 85.713303,239.997314 81.569336,239.942444 
	C67.192154,240.436325 63.667240,243.598007 61.857079,257.412994 
	C61.617985,259.237762 61.938602,261.135864 62.000000,263.000000 
	C56.977909,263.000000 51.955814,263.000000 46.466862,263.000000 
M84.508614,137.569382 
	C87.005516,136.363083 89.502419,135.156799 92.837776,133.990265 
	C94.518021,133.211700 96.198265,132.433136 97.956543,130.884720 
	C97.203957,130.093719 96.221756,128.498352 95.734650,128.637390 
	C91.345360,129.890335 86.963646,131.254181 82.743134,132.984146 
	C79.982162,134.115845 79.836952,136.221924 82.005119,139.024384 
	C82.615112,139.973618 83.225113,140.922852 83.835114,141.872070 
	C84.111588,141.671387 84.388062,141.470688 84.664536,141.270004 
	C84.448730,140.211838 84.232933,139.153656 84.508614,137.569382 
M86.610268,143.978149 
	C86.686905,144.721909 86.763550,145.465683 86.840187,146.209442 
	C87.379631,145.821335 87.919075,145.433228 88.458527,145.045135 
	C88.027939,144.651276 87.597343,144.257416 86.610268,143.978149 
z"/>
<path fill="#0C0C10" opacity="1.000000" stroke="none" 
	d="
M198.983582,236.931931 
	C197.834625,240.868805 196.568054,244.776978 195.596710,248.757202 
	C195.227386,250.270584 195.536697,251.949585 195.536697,253.553085 
	C196.210876,253.745636 196.885056,253.938187 197.559219,254.130737 
	C200.225876,248.242523 202.892532,242.354324 204.877045,237.972321 
	C205.491974,245.132080 206.224899,253.665588 206.978912,262.599548 
	C159.979111,263.000000 112.958214,263.000000 65.468292,262.540894 
	C65.002525,259.604248 64.876640,257.118530 65.034027,254.650864 
	C65.453850,248.068542 67.786491,244.665482 73.658524,243.020691 
	C76.630074,242.188339 79.869240,242.311356 83.388962,241.959717 
	C88.202644,242.046371 92.614792,242.175781 97.542564,242.320312 
	C97.057312,235.126938 96.513893,227.071228 96.398178,219.010284 
	C100.897118,219.655548 104.953896,220.720474 109.042847,220.863129 
	C115.834770,221.100067 122.679993,220.272995 129.444168,220.740982 
	C141.917877,221.604019 153.795837,219.592941 165.505051,215.412933 
	C170.170059,213.747589 175.196671,213.095139 180.076508,212.021820 
	C180.094376,212.062042 180.114990,212.147614 180.096069,212.427002 
	C180.406311,213.115067 180.735474,213.523743 181.340073,214.249725 
	C181.615509,220.894791 181.615509,227.222549 181.615509,233.550293 
	C181.841660,233.583282 182.067795,233.616272 182.293945,233.649261 
	C182.528610,233.103409 182.763275,232.557556 183.418228,232.009003 
	C187.981262,232.684555 192.160965,233.203308 196.241760,234.148911 
	C197.313141,234.397156 198.077972,235.968307 198.983582,236.931931 
z"/>
<path fill="#0F0F12" opacity="1.000000" stroke="none" 
	d="
M211.468658,263.000000 
	C210.269516,254.593307 208.314240,246.184128 211.621536,237.395035 
	C219.602554,237.004837 227.022659,236.773560 234.420242,237.082108 
	C239.588074,237.297623 243.083496,240.887634 243.961487,245.864120 
	C243.719604,247.816299 243.263474,249.770615 243.282974,251.720184 
	C243.317581,255.178680 243.640854,258.634308 243.921677,262.545563 
	C233.312439,263.000000 222.624878,263.000000 211.468658,263.000000 
z"/>
<path fill="#0E0E0E" opacity="1.000000" stroke="none" 
	d="
M82.987411,242.002441 
	C79.869240,242.311356 76.630074,242.188339 73.658524,243.020691 
	C67.786491,244.665482 65.453850,248.068542 65.034027,254.650864 
	C64.876640,257.118530 65.002525,259.604248 64.999634,262.540894 
	C64.250000,263.000000 63.500000,263.000000 62.375000,263.000000 
	C61.938602,261.135864 61.617985,259.237762 61.857079,257.412994 
	C63.667240,243.598007 67.192154,240.436325 81.809677,240.114426 
	C82.650848,240.898178 82.819130,241.450317 82.987411,242.002441 
z"/>
<path fill="#BCBD36" opacity="1.000000" stroke="none" 
	d="
M160.024506,66.015129 
	C154.835068,73.707947 146.755310,74.881363 138.756424,75.848251 
	C132.819382,76.565895 126.764908,77.165062 120.823578,76.807144 
	C110.219376,76.168304 99.303978,76.108749 90.087524,68.558975 
	C84.563309,57.102699 84.174477,45.301601 85.176208,32.987335 
	C91.597694,33.734165 96.121780,36.608860 98.434578,42.963623 
	C100.570137,40.092705 102.432053,37.412697 104.484528,34.887589 
	C106.068298,32.939117 107.542824,31.666330 110.022423,34.445339 
	C112.574486,37.305550 115.921913,39.456078 118.670815,41.711597 
	C120.927803,39.104027 123.706215,35.894039 126.994667,32.094795 
	C129.834641,34.664951 132.343964,36.935867 134.808746,39.166470 
	C140.180847,31.412361 142.537598,31.075266 149.507111,37.355618 
	C150.985031,36.008011 152.259567,33.956268 153.980194,33.464066 
	C157.451981,32.470928 160.603561,35.393234 160.739609,39.410507 
	C160.918808,44.701332 160.048096,50.159740 161.090500,55.246559 
	C161.891327,59.154400 161.354965,62.297768 160.024506,66.015129 
z"/>
<path fill="#BEBF3B" opacity="1.000000" stroke="none" 
	d="
M196.124893,23.829967 
	C200.977768,26.876696 205.559814,29.679487 210.865570,32.924946 
	C207.273499,33.629025 204.643173,33.643738 202.493271,34.667400 
	C197.604660,36.995083 196.399460,42.111603 196.735199,46.542549 
	C197.140259,51.888134 194.514114,54.402012 189.998459,57.771843 
	C192.122787,42.559505 184.794968,36.323483 170.419861,35.695587 
	C178.734268,28.345369 187.596863,21.460136 187.175507,8.835447 
	C188.520020,8.835447 189.854065,8.835447 191.569626,8.835447 
	C190.217331,14.690398 192.402832,19.340986 196.124893,23.829967 
z"/>
<path fill="#BEBF3B" opacity="1.000000" stroke="none" 
	d="
M225.205414,79.504723 
	C225.057785,83.311440 224.991165,86.724968 224.953598,90.138817 
	C224.929779,92.303787 224.949158,94.469231 224.949158,96.634460 
	C224.342361,96.716927 223.735565,96.799393 223.128769,96.881859 
	C222.540070,95.649788 221.891571,94.442291 221.373383,93.181244 
	C219.440475,88.477219 218.097900,83.405884 215.406662,79.192307 
	C214.114761,77.169655 210.383636,76.452972 207.605347,75.721519 
	C205.796432,75.245255 203.714111,75.807480 200.082916,75.987183 
	C202.313126,73.205315 203.773514,71.442032 205.170425,69.629799 
	C208.696030,65.055931 212.603485,60.703682 215.531204,55.771851 
	C217.031738,53.244160 216.760345,49.664585 217.354767,46.179207 
	C217.576920,46.225334 219.249100,46.136139 219.508942,46.698952 
	C220.950439,49.821419 222.369583,53.023369 223.187729,56.347893 
	C224.357941,61.103054 228.804443,64.675995 233.744186,64.903122 
	C235.285538,64.973991 236.752274,66.667923 238.545837,68.512680 
	C229.520081,67.050934 227.356125,73.020370 225.205414,79.504723 
z"/>
<path fill="#111111" opacity="1.000000" stroke="none" 
	d="
M244.299225,246.005798 
	C243.083496,240.887634 239.588074,237.297623 234.420242,237.082108 
	C227.022659,236.773560 219.602554,237.004837 211.789963,237.008438 
	C211.435272,236.266678 211.482697,235.522095 211.704529,234.548508 
	C217.428558,233.769836 223.002609,233.396347 228.522278,232.630844 
	C237.686478,231.359894 246.034622,236.506241 247.989563,244.966248 
	C248.272232,246.189468 248.189774,247.497070 247.229950,249.369522 
	C246.365631,248.295502 245.501297,247.221481 244.299225,246.005798 
z"/>
<path fill="#FCFCFD" opacity="1.000000" stroke="none" 
	d="
M114.217644,134.921753 
	C120.739136,138.616531 127.212097,142.403931 133.847809,145.880722 
	C134.617218,146.283875 136.761093,145.313721 137.455429,144.377701 
	C139.604980,141.479874 141.362106,138.290955 143.833450,135.089645 
	C144.608170,134.971252 144.821030,134.978241 145.091187,135.392609 
	C144.467270,141.542877 143.132812,147.300156 143.258606,153.025345 
	C143.445145,161.514084 150.241165,167.536774 158.061096,167.224670 
	C165.312393,166.935242 171.287582,160.130829 171.366867,151.943237 
	C171.402237,148.292206 171.231995,144.639206 171.155060,140.987091 
	C174.911652,139.120987 178.958527,137.661774 182.330307,135.256287 
	C184.891907,133.428802 186.594833,130.397705 188.929703,127.603081 
	C195.873520,149.203873 193.429840,170.307800 189.865555,192.502975 
	C194.097198,190.052170 197.403168,188.137482 200.890564,186.576706 
	C191.875870,200.744827 177.615265,207.363159 162.812378,212.373535 
	C141.972382,219.427246 120.454903,219.046570 98.924484,215.430710 
	C85.273933,213.138199 73.789581,207.100540 65.004547,196.247101 
	C65.178978,195.205093 65.671265,194.098648 65.475220,193.131760 
	C64.370369,187.682739 62.693459,182.319824 61.983364,176.827759 
	C60.967911,168.973923 60.455532,161.042145 60.060078,153.127075 
	C59.888592,149.694794 60.717529,146.223114 60.754910,142.765686 
	C60.775734,140.839783 60.094540,138.908066 59.749920,136.975372 
	C59.648804,136.408295 59.408489,135.753342 59.584888,135.266556 
	C61.850254,129.015259 65.083405,123.384697 70.420486,118.011032 
	C73.825760,129.086990 76.207123,139.656189 83.427299,148.782684 
	C83.615402,151.153595 83.640411,152.823532 83.901901,154.455582 
	C85.230545,162.747986 95.449661,169.701324 101.860168,166.399506 
	C107.803413,163.338348 112.254814,158.573059 113.221474,151.716171 
	C114.001778,146.181213 113.918060,140.524475 114.217644,134.921753 
M121.968971,194.139114 
	C119.032974,193.518356 116.096977,192.897583 112.916679,192.225174 
	C116.078789,199.556335 120.221397,200.244415 129.705780,195.403641 
	C135.992874,200.208023 144.438583,199.724396 150.636475,194.403397 
	C153.256927,192.153687 154.139786,189.940872 151.467880,186.420425 
	C148.790070,187.647888 146.282715,189.324020 143.541916,189.912109 
	C140.529999,190.558365 135.929596,191.543594 134.441467,190.018921 
	C130.771423,186.258911 128.991974,187.881882 126.525200,190.744125 
	C125.464600,191.974777 124.019196,192.873795 121.968971,194.139114 
z"/>
<path fill="#130D0E" opacity="1.000000" stroke="none" 
	d="
M64.617035,196.201721 
	C73.789581,207.100540 85.273933,213.138199 98.924484,215.430710 
	C120.454903,219.046570 141.972382,219.427246 162.812378,212.373535 
	C177.615265,207.363159 191.875870,200.744827 201.364105,186.546387 
	C203.115036,184.331238 204.573837,182.500336 206.032654,180.669418 
	C206.523712,180.936432 207.014786,181.203445 207.505859,181.470459 
	C206.769318,183.097168 206.220779,184.844711 205.265579,186.330887 
	C199.319839,195.581467 191.858719,203.218903 181.814163,208.089691 
	C181.327576,208.325638 181.280289,209.467545 180.845062,210.674286 
	C180.460663,211.434540 180.259659,211.708069 180.058655,211.981598 
	C175.196671,213.095139 170.170059,213.747589 165.505051,215.412933 
	C153.795837,219.592941 141.917877,221.604019 129.444168,220.740982 
	C122.679993,220.272995 115.834770,221.100067 109.042847,220.863129 
	C104.953896,220.720474 100.897118,219.655548 96.116692,219.003265 
	C95.031418,218.993332 94.655327,218.985214 94.279236,218.977097 
	C93.478325,218.306000 92.778290,217.275436 91.861259,217.018097 
	C79.448929,213.534805 69.324745,206.702377 60.926491,195.898895 
	C62.368771,196.011322 63.299145,196.083832 64.617035,196.201721 
z"/>
<path fill="#FAFAFA" opacity="1.000000" stroke="none" 
	d="
M158.154724,132.032990 
	C160.216461,133.887238 162.278198,135.741501 164.642487,138.191513 
	C164.976669,144.129761 165.634201,149.567047 164.843719,154.784988 
	C164.200531,159.030807 161.074677,162.178680 156.094803,161.907745 
	C151.607773,161.663620 148.702164,158.715820 148.123245,153.332336 
	C147.720444,149.586731 147.985062,145.759827 148.079025,141.972397 
	C148.256226,134.829468 150.534241,132.541977 157.270355,132.883881 
	C157.747314,132.626541 157.951019,132.329758 158.154724,132.032990 
z"/>
<path fill="#110B0C" opacity="1.000000" stroke="none" 
	d="
M156.997086,132.844421 
	C150.534241,132.541977 148.256226,134.829468 148.079025,141.972397 
	C147.985062,145.759827 147.720444,149.586731 148.123245,153.332336 
	C148.702164,158.715820 151.607773,161.663620 156.094803,161.907745 
	C161.074677,162.178680 164.200531,159.030807 164.843719,154.784988 
	C165.634201,149.567047 164.976669,144.129761 164.916077,138.355835 
	C166.804077,138.792023 168.721054,139.659653 170.896545,140.757187 
	C171.231995,144.639206 171.402237,148.292206 171.366867,151.943237 
	C171.287582,160.130829 165.312393,166.935242 158.061096,167.224670 
	C150.241165,167.536774 143.445145,161.514084 143.258606,153.025345 
	C143.132812,147.300156 144.467270,141.542877 145.313797,135.235260 
	C145.056076,134.113022 144.633041,133.555481 144.210022,132.997940 
	C144.617126,132.084793 145.024231,131.171631 146.019043,129.951721 
	C149.227478,128.754272 151.848221,127.863579 154.468964,126.972885 
	C155.284012,127.923668 156.099045,128.874466 156.990662,130.564972 
	C157.043854,131.817932 157.020477,132.331177 156.997086,132.844421 
z"/>
<path fill="#130D0F" opacity="1.000000" stroke="none" 
	d="
M114.066208,134.617615 
	C113.918060,140.524475 114.001778,146.181213 113.221474,151.716171 
	C112.254814,158.573059 107.803413,163.338348 101.860168,166.399506 
	C95.449661,169.701324 85.230545,162.747986 83.901901,154.455582 
	C83.640411,152.823532 83.615402,151.153595 83.624435,149.085449 
	C84.959770,149.636810 86.152008,150.603836 87.587029,152.146362 
	C87.961929,153.536102 87.970825,154.394897 88.246407,155.157288 
	C89.888199,159.699173 94.760277,163.408493 98.692543,162.808517 
	C103.571220,162.064133 106.179970,158.690628 106.768936,154.091675 
	C107.557312,147.935623 107.831421,141.713715 108.371910,134.950027 
	C105.265579,134.580643 102.717476,134.277634 100.169373,133.974609 
	C101.025970,127.208572 105.864731,126.069748 110.813103,131.160248 
	C111.840744,132.217407 112.880569,133.262695 114.066208,134.617615 
z"/>
<path fill="#F7F7F9" opacity="1.000000" stroke="none" 
	d="
M99.987862,134.308807 
	C102.717476,134.277634 105.265579,134.580643 108.371910,134.950027 
	C107.831421,141.713715 107.557312,147.935623 106.768936,154.091675 
	C106.179970,158.690628 103.571220,162.064133 98.692543,162.808517 
	C94.760277,163.408493 89.888199,159.699173 88.246407,155.157288 
	C87.970825,154.394897 87.961929,153.536102 87.836090,152.330200 
	C90.597488,153.391418 93.352608,154.844284 96.107727,156.297165 
	C96.621208,155.626511 97.134682,154.955872 97.648163,154.285233 
	C95.945099,153.401382 94.242035,152.517532 92.346771,151.533936 
	C99.288406,147.147339 96.526283,139.669388 99.987862,134.308807 
z"/>
<path fill="#161717" opacity="1.000000" stroke="none" 
	d="
M94.150124,219.384079 
	C94.655327,218.985214 95.031418,218.993332 95.688988,219.008484 
	C96.513893,227.071228 97.057312,235.126938 97.542564,242.320312 
	C92.614792,242.175781 88.202644,242.046371 83.388962,241.959717 
	C82.819130,241.450317 82.650848,240.898178 82.242218,240.174072 
	C85.713303,239.997314 89.424736,239.992538 93.710396,239.916809 
	C94.284630,239.845856 94.539803,239.487198 94.539803,239.487198 
	C94.539803,239.487198 94.299339,239.084381 94.299339,239.084381 
	C94.206558,232.653275 94.113785,226.222168 94.150124,219.384079 
z"/>
<path fill="#0D0A11" opacity="1.000000" stroke="none" 
	d="
M81.985229,138.356308 
	C79.836952,136.221924 79.982162,134.115845 82.743134,132.984146 
	C86.963646,131.254181 91.345360,129.890335 95.734650,128.637390 
	C96.221756,128.498352 97.203957,130.093719 97.626999,131.514191 
	C95.531403,132.745956 93.765366,133.348221 91.999321,133.950500 
	C89.502419,135.156799 87.005516,136.363083 83.918922,137.812164 
	C82.881233,138.155396 82.433228,138.255859 81.985229,138.356308 
z"/>
<path fill="#060606" opacity="1.000000" stroke="none" 
	d="
M180.076523,212.021820 
	C180.259659,211.708069 180.460663,211.434540 180.896698,211.051620 
	C182.411148,213.697800 184.263885,216.343781 184.817123,219.238144 
	C185.434158,222.466171 184.870193,225.919922 184.632675,229.663147 
	C183.962692,230.704498 183.480316,231.358109 182.997925,232.011719 
	C182.763275,232.557556 182.528610,233.103409 182.293945,233.649261 
	C182.067795,233.616272 181.841660,233.583282 181.615509,233.550293 
	C181.615509,227.222549 181.615509,220.894791 181.314606,213.975250 
	C180.714142,212.971527 180.414566,212.559570 180.114990,212.147614 
	C180.114990,212.147614 180.094376,212.062042 180.076523,212.021820 
z"/>
<path fill="#0E0F13" opacity="1.000000" stroke="none" 
	d="
M183.418213,232.009003 
	C183.480316,231.358109 183.962692,230.704498 184.778778,230.006104 
	C189.686020,230.388077 194.261566,230.795593 198.829712,231.273895 
	C199.248779,231.317780 199.620453,231.814178 200.118164,232.176102 
	C199.868240,233.531250 199.616882,234.894226 199.174561,236.594574 
	C198.077972,235.968307 197.313141,234.397156 196.241760,234.148911 
	C192.160965,233.203308 187.981262,232.684555 183.418213,232.009003 
z"/>
<path fill="#DADBE1" opacity="1.000000" stroke="none" 
	d="
M154.407089,126.709641 
	C151.848221,127.863579 149.227478,128.754272 146.231049,129.726990 
	C146.936371,127.480843 148.017395,125.152687 149.436218,122.096977 
	C151.508789,123.933296 152.927002,125.189842 154.407089,126.709641 
z"/>
<path fill="#496FF8" opacity="1.000000" stroke="none" 
	d="
M81.995178,138.690338 
	C82.433228,138.255859 82.881233,138.155396 83.673180,138.075226 
	C84.232933,139.153656 84.448730,140.211838 84.664536,141.270004 
	C84.388062,141.470688 84.111588,141.671387 83.835114,141.872070 
	C83.225113,140.922852 82.615112,139.973618 81.995178,138.690338 
z"/>
<path fill="#496FF8" opacity="1.000000" stroke="none" 
	d="
M86.888512,143.920853 
	C87.597343,144.257416 88.027939,144.651276 88.458527,145.045135 
	C87.919075,145.433228 87.379631,145.821335 86.840187,146.209442 
	C86.763550,145.465683 86.686905,144.721909 86.888512,143.920853 
z"/>
<path fill="#496FF8" opacity="1.000000" stroke="none" 
	d="
M92.418549,133.970383 
	C93.765366,133.348221 95.531403,132.745956 97.587982,131.899109 
	C96.198265,132.433136 94.518021,133.211700 92.418549,133.970383 
z"/>
<path fill="#110D10" opacity="1.000000" stroke="none" 
	d="
M144.080917,133.276474 
	C144.633041,133.555481 145.056076,134.113022 145.256485,134.827911 
	C144.821030,134.978241 144.608170,134.971252 144.089279,134.866394 
	C143.839432,134.364029 143.895630,133.959518 144.080917,133.276474 
z"/>
<path fill="#110D10" opacity="1.000000" stroke="none" 
	d="
M157.270355,132.883881 
	C157.020477,132.331177 157.043854,131.817932 157.113770,130.920059 
	C157.427017,130.838989 157.693741,131.142563 158.057602,131.739563 
	C157.951019,132.329758 157.747314,132.626541 157.270355,132.883881 
z"/>
<path fill="#0C0C10" opacity="1.000000" stroke="none" 
	d="
M94.152962,239.266876 
	C94.299339,239.084381 94.539803,239.487198 94.539803,239.487198 
	C94.539803,239.487198 94.284630,239.845856 94.122063,239.880356 
	C93.959496,239.914856 94.006584,239.449356 94.152962,239.266876 
z"/>
<path fill="#130D0E" opacity="1.000000" stroke="none" 
	d="
M180.096069,212.427002 
	C180.414566,212.559570 180.714142,212.971527 181.039185,213.657959 
	C180.735474,213.523743 180.406311,213.115067 180.096069,212.427002 
z"/>
<path fill="#110C0C" opacity="1.000000" stroke="none" 
	d="
M122.358795,194.031281 
	C124.019196,192.873795 125.464600,191.974777 126.525200,190.744125 
	C128.991974,187.881882 130.771423,186.258911 134.441467,190.018921 
	C135.929596,191.543594 140.529999,190.558365 143.541916,189.912109 
	C146.282715,189.324020 148.790070,187.647888 151.467880,186.420425 
	C154.139786,189.940872 153.256927,192.153687 150.636475,194.403397 
	C144.438583,199.724396 135.992874,200.208023 129.705780,195.403641 
	C120.221397,200.244415 116.078789,199.556335 112.916679,192.225174 
	C116.096977,192.897583 119.032974,193.518356 122.358795,194.031281 
z"/>
</svg>