<svg version="1.1" id="Layer_1" xmlns="http://www.w3.org/2000/svg" xmlns:xlink="http://www.w3.org/1999/xlink" x="0px" y="0px"
	 width="100%" viewBox="0 0 262 262" enable-background="new 0 0 262 262" xml:space="preserve">
<path fill="#000000" opacity="1.000000" stroke="none" 
	d="
M46.000000,263.000000 
	C31.007715,263.000000 16.015430,263.000000 1.017359,263.000000 
	C1.011572,175.719299 1.011572,88.438599 1.011572,1.078949 
	C88.235718,1.078949 175.471527,1.078949 262.853668,1.078949 
	C262.853668,88.333153 262.853668,175.666550 262.853668,263.000000 
	C256.264404,263.000000 249.601120,263.000000 242.468552,262.544708 
	C242.284424,257.301880 242.306610,252.480392 242.919220,247.735138 
	C243.741791,241.363373 240.794342,236.904068 234.218369,236.242111 
	C230.294067,235.847061 226.264587,236.593842 222.313126,236.343033 
	C218.786102,236.119171 215.301315,235.230179 211.873932,234.259598 
	C213.161728,228.536743 214.528183,223.218338 215.549667,217.834488 
	C217.155884,209.368912 219.522202,200.889542 219.782425,192.361557 
	C220.236588,177.477905 219.468369,162.548050 218.936539,147.647415 
	C218.709763,141.293121 217.702103,134.969208 217.291977,128.615814 
	C217.240097,127.812241 218.668396,126.913124 218.486115,127.122986 
	C216.753479,124.308456 215.067368,122.040321 213.881088,119.535461 
	C211.955673,115.469925 211.052368,110.743515 208.473618,107.201851 
	C203.470078,100.329926 197.608093,94.082382 192.089569,87.586525 
	C190.510696,85.728020 189.168579,83.514359 187.237549,82.136955 
	C180.558517,77.372841 173.233368,73.408287 167.068283,68.081421 
	C164.552780,65.907921 162.709457,65.786469 160.081528,65.601639 
	C162.857712,62.264812 162.564438,59.392208 161.519745,55.368008 
	C160.172791,50.179569 161.449280,44.367874 160.852661,38.905785 
	C160.477646,35.472446 159.201736,31.365562 154.328506,32.258438 
	C152.414627,32.609097 150.818939,34.696259 149.039505,36.021542 
	C144.066254,30.691792 139.356720,31.150360 133.911728,38.780975 
	C132.383408,36.771545 131.157211,34.767902 129.521271,33.188732 
	C128.802109,32.494534 126.715851,32.058125 126.163094,32.543713 
	C123.243340,35.108673 120.614449,38.004715 118.377419,40.283905 
	C115.603546,37.996769 112.247314,35.051525 108.651260,32.436008 
	C108.037415,31.989542 105.997704,32.583420 105.304283,33.332867 
	C102.883217,35.949551 100.763649,38.845184 98.202583,42.043034 
	C97.353676,35.488007 91.694214,34.597042 87.319145,32.356777 
	C86.818024,32.100178 84.221077,34.080032 84.146126,35.133240 
	C83.346466,46.370201 84.221176,57.423008 88.602692,67.930557 
	C83.541061,70.635002 78.738167,73.103615 74.175201,75.956055 
	C63.478577,82.642807 55.877235,92.445839 50.199257,103.269753 
	C44.815182,113.533394 41.244579,124.758171 37.032085,135.620621 
	C35.756130,138.910843 34.093578,142.420715 34.163631,145.797714 
	C34.430153,158.646545 35.244659,171.487717 36.046455,184.319748 
	C36.320400,188.703995 37.085045,193.064362 37.754433,197.415802 
	C39.462978,208.522369 41.510757,219.584076 42.919762,230.727325 
	C44.274750,241.443390 44.998749,252.239212 46.000000,263.000000 
M183.570709,19.967299 
	C178.994720,25.364597 174.418732,30.761898 169.277359,36.826057 
	C171.584518,36.975063 173.091553,37.242188 174.573212,37.140198 
	C183.396255,36.532860 190.740524,44.914227 189.184647,53.645668 
	C188.935745,55.042564 189.851440,56.646984 190.306381,58.465797 
	C195.220154,55.313847 197.374832,52.215469 197.199875,46.813030 
	C196.920441,38.185844 200.097015,35.446274 208.303406,34.834538 
	C209.257263,34.763435 210.143021,33.778732 212.102966,32.579803 
	C201.517990,27.050474 189.814407,23.006840 192.102646,8.210346 
	C189.786484,8.210346 188.033463,8.210346 187.291245,8.210346 
	C186.133133,12.241814 185.107132,15.813390 183.570709,19.967299 
M208.978500,64.537926 
	C207.636475,65.881844 206.298904,67.230247 204.951431,68.568672 
	C202.646927,70.857658 200.028564,73.021027 201.508026,76.933723 
	C207.210297,75.171616 212.850494,76.074318 214.746857,79.565140 
	C217.131805,83.955376 218.843948,88.706291 221.010971,93.222618 
	C221.670639,94.597450 222.873962,95.711441 223.828308,96.944893 
	C224.551346,95.494186 225.472458,94.101013 225.917282,92.569504 
	C226.154160,91.753929 225.558014,90.700958 225.353226,89.751823 
	C224.031342,83.625610 226.095032,78.201851 228.670670,72.803261 
	C230.968704,67.986519 235.412109,70.435669 239.121658,69.771278 
	C238.218903,66.017410 237.091507,63.208637 232.638779,64.079987 
	C231.899368,64.224678 231.013702,63.827946 230.239441,63.556435 
	C223.424759,61.166725 223.419220,54.103611 221.392349,49.013935 
	C219.800522,45.016712 218.457672,44.650150 215.188873,45.335487 
	C215.760437,47.467407 217.286072,49.891129 216.641205,51.365547 
	C214.710144,55.780731 211.930283,59.824684 208.978500,64.537926 
z"/>
<path fill="#466EFE" opacity="1.000000" stroke="none" 
	d="
M160.127274,65.967545 
	C162.709457,65.786469 164.552780,65.907921 167.068283,68.081421 
	C173.233368,73.408287 180.558517,77.372841 187.237549,82.136955 
	C189.168579,83.514359 190.510696,85.728020 192.089569,87.586525 
	C197.608093,94.082382 203.470078,100.329926 208.473618,107.201851 
	C211.052368,110.743515 211.955673,115.469925 213.881088,119.535461 
	C215.067368,122.040321 216.753479,124.308456 218.486115,127.122986 
	C218.668396,126.913124 217.240097,127.812241 217.291977,128.615814 
	C217.702103,134.969208 218.709763,141.293121 218.936539,147.647415 
	C219.468369,162.548050 220.236588,177.477905 219.782425,192.361557 
	C219.522202,200.889542 217.155884,209.368912 215.549667,217.834488 
	C214.528183,223.218338 213.161728,228.536743 211.576385,234.552246 
	C208.638306,244.461777 209.756607,253.730423 211.000000,263.000000 
	C209.933334,263.000000 208.866653,263.000000 207.427643,262.583984 
	C206.555008,252.569138 206.054718,242.970306 205.583313,233.925415 
	C202.914093,239.953156 202.734192,248.197632 196.757629,253.343430 
	C196.289566,253.135117 195.821503,252.926788 195.353439,252.718460 
	C196.857971,246.475952 198.362503,240.233459 200.002731,233.591522 
	C198.961838,232.424438 197.874146,231.241837 196.591934,230.967087 
	C192.775528,230.149277 188.882645,229.688309 186.213440,229.273438 
	C184.844879,221.664627 183.653564,215.041229 182.370819,207.909622 
	C198.367279,197.586639 207.408951,187.781387 206.620300,181.369995 
	C202.038239,184.803955 197.392456,188.327011 192.685715,191.766663 
	C192.011490,192.259399 191.042725,192.349091 190.210266,192.625305 
	C190.049011,191.667511 189.650375,190.680679 189.763519,189.756470 
	C190.789734,181.372955 192.351517,173.027939 192.870804,164.616959 
	C193.402756,156.001282 193.621597,147.318466 190.599472,138.867859 
	C189.532455,135.884247 189.928009,132.377594 189.552444,127.869019 
	C186.821075,131.335236 184.809311,133.726379 182.978195,136.248672 
	C179.981476,140.376526 173.690582,141.857285 169.090790,139.974884 
	C162.855179,137.422989 158.662506,132.810715 154.936478,127.505722 
	C153.579285,125.573402 151.917892,123.854721 150.395279,122.038574 
	C149.230194,124.135719 148.068558,126.234802 146.896011,128.327759 
	C146.735443,128.614349 146.483383,128.851746 146.336121,129.143417 
	C143.362686,135.032791 140.398361,140.926773 137.217041,147.247345 
	C124.350838,143.136444 113.122795,136.662048 105.216187,125.014084 
	C104.584915,125.150490 103.953644,125.286903 103.322372,125.423317 
	C100.807945,134.173615 98.293518,142.923904 95.718399,151.885406 
	C96.381065,152.847580 97.251015,154.110733 98.459564,155.865509 
	C97.123817,156.069901 96.433334,156.329193 95.783127,156.251465 
	C88.646477,155.398514 84.550133,149.802094 81.260414,144.788483 
	C76.380104,137.350739 73.269356,128.751907 69.177292,120.168953 
	C66.572334,126.022942 58.975952,129.505173 61.570843,139.059540 
	C63.091785,144.659637 60.681488,151.204956 61.128475,157.244492 
	C62.083519,170.148758 60.644440,183.462845 67.156288,196.042358 
	C65.057861,196.042358 63.435097,196.042358 61.145359,196.042358 
	C69.911804,207.526245 80.763023,214.465714 93.100388,217.432800 
	C93.420296,224.431335 93.796669,230.803635 93.907753,237.180557 
	C93.923698,238.095795 92.659630,239.033310 91.881165,239.872284 
	C91.774384,239.784042 91.594826,239.995010 91.418243,239.721725 
	C90.836716,239.341705 90.431770,239.234970 89.631310,239.017303 
	C88.155563,238.979660 87.075333,239.052948 85.648430,239.091339 
	C84.180573,239.324524 83.059380,239.592590 81.613174,239.789001 
	C80.860374,239.818787 80.432587,239.920227 79.589828,239.972488 
	C67.736336,240.772263 63.613213,244.186432 62.055809,254.552643 
	C61.641689,257.308990 61.997623,260.181061 62.000000,263.000000 
	C56.977909,263.000000 51.955814,263.000000 46.466862,263.000000 
	C44.998749,252.239212 44.274750,241.443390 42.919762,230.727325 
	C41.510757,219.584076 39.462978,208.522369 37.754433,197.415802 
	C37.085045,193.064362 36.320400,188.703995 36.046455,184.319748 
	C35.244659,171.487717 34.430153,158.646545 34.163631,145.797714 
	C34.093578,142.420715 35.756130,138.910843 37.032085,135.620621 
	C41.244579,124.758171 44.815182,113.533394 50.199257,103.269753 
	C55.877235,92.445839 63.478577,82.642807 74.175201,75.956055 
	C78.738167,73.103615 83.541061,70.635002 88.908829,68.096939 
	C93.925987,72.442139 99.321365,74.668304 105.194855,74.931923 
	C117.131126,75.467644 129.138382,76.209274 141.023117,75.434891 
	C148.142029,74.971046 155.906677,73.410568 160.127274,65.967545 
M81.586205,133.850967 
	C79.451218,136.600815 81.099747,137.866501 83.161606,138.240906 
	C86.573395,136.236099 90.064636,133.749359 93.722191,133.474335 
	C97.374435,133.199707 97.775238,131.499191 98.613586,128.509949 
	C92.350853,128.617065 86.816467,129.525208 81.586205,133.850967 
z"/>
<path fill="#0B0B0F" opacity="1.000000" stroke="none" 
	d="
M85.995094,239.126236 
	C87.075333,239.052948 88.155563,238.979660 89.883080,239.177917 
	C90.885185,239.631302 91.240005,239.813156 91.594826,239.995010 
	C91.594826,239.995010 91.774384,239.784042 91.902168,240.167557 
	C93.315659,241.307449 94.601372,242.063843 95.887085,242.820236 
	C96.323273,242.487854 96.759453,242.155472 97.195633,241.823105 
	C96.568848,236.610519 95.972725,231.394028 95.306320,226.186508 
	C94.689293,221.364914 96.506210,217.872421 99.714417,218.541214 
	C113.706207,221.458023 127.721245,221.246475 141.890961,220.126572 
	C153.011215,219.247711 163.539154,216.661758 173.615402,212.104599 
	C178.290985,209.989990 180.236740,210.729782 180.951416,215.960510 
	C181.662659,221.166183 182.002533,226.422592 182.461029,231.196365 
	C188.456924,232.159012 194.161987,233.074982 199.867035,233.990936 
	C198.362503,240.233459 196.857971,246.475952 195.353439,252.718460 
	C195.821503,252.926788 196.289566,253.135117 196.757629,253.343430 
	C202.734192,248.197632 202.914093,239.953156 205.583313,233.925415 
	C206.054718,242.970306 206.555008,252.569138 207.027649,262.583984 
	C159.645767,263.000000 112.291542,263.000000 64.473259,262.573425 
	C64.324074,259.858093 64.680733,257.574219 64.946426,255.279785 
	C65.974411,246.402420 67.555840,244.580658 75.912109,242.222137 
	C77.367424,241.811386 78.645081,240.771164 80.004799,240.021683 
	C80.432587,239.920227 80.860374,239.818787 81.869141,239.986710 
	C83.631783,239.879456 84.813438,239.502853 85.995094,239.126236 
z"/>
<path fill="#0B0B0F" opacity="1.000000" stroke="none" 
	d="
M211.468658,263.000000 
	C209.756607,253.730423 208.638306,244.461777 211.500336,234.927353 
	C215.301315,235.230179 218.786102,236.119171 222.313126,236.343033 
	C226.264587,236.593842 230.294067,235.847061 234.218369,236.242111 
	C240.794342,236.904068 243.741791,241.363373 242.919220,247.735138 
	C242.306610,252.480392 242.284424,257.301880 241.999634,262.544708 
	C231.979111,263.000000 221.958206,263.000000 211.468658,263.000000 
z"/>
<path fill="#010001" opacity="1.000000" stroke="none" 
	d="
M79.589828,239.972488 
	C78.645081,240.771164 77.367424,241.811386 75.912109,242.222137 
	C67.555840,244.580658 65.974411,246.402420 64.946426,255.279785 
	C64.680733,257.574219 64.324074,259.858093 64.004601,262.573425 
	C63.555553,263.000000 63.111111,263.000000 62.333332,263.000000 
	C61.997623,260.181061 61.641689,257.308990 62.055809,254.552643 
	C63.613213,244.186432 67.736336,240.772263 79.589828,239.972488 
z"/>
<path fill="#BBBD34" opacity="1.000000" stroke="none" 
	d="
M160.081528,65.601639 
	C155.906677,73.410568 148.142029,74.971046 141.023117,75.434891 
	C129.138382,76.209274 117.131126,75.467644 105.194855,74.931923 
	C99.321365,74.668304 93.925987,72.442139 89.276588,68.035530 
	C84.221176,57.423008 83.346466,46.370201 84.146126,35.133240 
	C84.221077,34.080032 86.818024,32.100178 87.319145,32.356777 
	C91.694214,34.597042 97.353676,35.488007 98.202583,42.043034 
	C100.763649,38.845184 102.883217,35.949551 105.304283,33.332867 
	C105.997704,32.583420 108.037415,31.989542 108.651260,32.436008 
	C112.247314,35.051525 115.603546,37.996769 118.377419,40.283905 
	C120.614449,38.004715 123.243340,35.108673 126.163094,32.543713 
	C126.715851,32.058125 128.802109,32.494534 129.521271,33.188732 
	C131.157211,34.767902 132.383408,36.771545 133.911728,38.780975 
	C139.356720,31.150360 144.066254,30.691792 149.039505,36.021542 
	C150.818939,34.696259 152.414627,32.609097 154.328506,32.258438 
	C159.201736,31.365562 160.477646,35.472446 160.852661,38.905785 
	C161.449280,44.367874 160.172791,50.179569 161.519745,55.368008 
	C162.564438,59.392208 162.857712,62.264812 160.081528,65.601639 
z"/>
<path fill="#BBBD33" opacity="1.000000" stroke="none" 
	d="
M183.825928,19.676132 
	C185.107132,15.813390 186.133133,12.241814 187.291245,8.210346 
	C188.033463,8.210346 189.786484,8.210346 192.102646,8.210346 
	C189.814407,23.006840 201.517990,27.050474 212.102966,32.579803 
	C210.143021,33.778732 209.257263,34.763435 208.303406,34.834538 
	C200.097015,35.446274 196.920441,38.185844 197.199875,46.813030 
	C197.374832,52.215469 195.220154,55.313847 190.306381,58.465797 
	C189.851440,56.646984 188.935745,55.042564 189.184647,53.645668 
	C190.740524,44.914227 183.396255,36.532860 174.573212,37.140198 
	C173.091553,37.242188 171.584518,36.975063 169.277359,36.826057 
	C174.418732,30.761898 178.994720,25.364597 183.825928,19.676132 
z"/>
<path fill="#BBBD33" opacity="1.000000" stroke="none" 
	d="
M209.230133,64.275742 
	C211.930283,59.824684 214.710144,55.780731 216.641205,51.365547 
	C217.286072,49.891129 215.760437,47.467407 215.188873,45.335487 
	C218.457672,44.650150 219.800522,45.016712 221.392349,49.013935 
	C223.419220,54.103611 223.424759,61.166725 230.239441,63.556435 
	C231.013702,63.827946 231.899368,64.224678 232.638779,64.079987 
	C237.091507,63.208637 238.218903,66.017410 239.121658,69.771278 
	C235.412109,70.435669 230.968704,67.986519 228.670670,72.803261 
	C226.095032,78.201851 224.031342,83.625610 225.353226,89.751823 
	C225.558014,90.700958 226.154160,91.753929 225.917282,92.569504 
	C225.472458,94.101013 224.551346,95.494186 223.828308,96.944893 
	C222.873962,95.711441 221.670639,94.597450 221.010971,93.222618 
	C218.843948,88.706291 217.131805,83.955376 214.746857,79.565140 
	C212.850494,76.074318 207.210297,75.171616 201.508026,76.933723 
	C200.028564,73.021027 202.646927,70.857658 204.951431,68.568672 
	C206.298904,67.230247 207.636475,65.881844 209.230133,64.275742 
z"/>
<path fill="#010001" opacity="1.000000" stroke="none" 
	d="
M200.002731,233.591522 
	C194.161987,233.074982 188.456924,232.159012 182.461029,231.196365 
	C182.002533,226.422592 181.662659,221.166183 180.951416,215.960510 
	C180.236740,210.729782 178.290985,209.989990 173.615402,212.104599 
	C163.539154,216.661758 153.011215,219.247711 141.890961,220.126572 
	C127.721245,221.246475 113.706207,221.458023 99.714417,218.541214 
	C96.506210,217.872421 94.689293,221.364914 95.306320,226.186508 
	C95.972725,231.394028 96.568848,236.610519 97.195633,241.823105 
	C96.759453,242.155472 96.323273,242.487854 95.887085,242.820236 
	C94.601372,242.063843 93.315659,241.307449 92.008942,240.255798 
	C92.659630,239.033310 93.923698,238.095795 93.907753,237.180557 
	C93.796669,230.803635 93.420296,224.431335 93.100388,217.432800 
	C80.763023,214.465714 69.911804,207.526245 61.145359,196.042358 
	C63.435097,196.042358 65.057861,196.042358 67.156288,196.042358 
	C60.644440,183.462845 62.083519,170.148758 61.128475,157.244492 
	C60.681488,151.204956 63.091785,144.659637 61.570843,139.059540 
	C58.975952,129.505173 66.572334,126.022942 69.177292,120.168953 
	C73.269356,128.751907 76.380104,137.350739 81.260414,144.788483 
	C84.550133,149.802094 88.646477,155.398514 95.783127,156.251465 
	C96.433334,156.329193 97.123817,156.069901 98.459564,155.865509 
	C97.251015,154.110733 96.381065,152.847580 95.718399,151.885406 
	C98.293518,142.923904 100.807945,134.173615 103.322372,125.423317 
	C103.953644,125.286903 104.584915,125.150490 105.216187,125.014084 
	C113.122795,136.662048 124.350838,143.136444 137.217041,147.247345 
	C140.398361,140.926773 143.362686,135.032791 146.336121,129.143417 
	C146.483383,128.851746 146.735443,128.614349 146.896011,128.327759 
	C148.068558,126.234802 149.230194,124.135719 150.395279,122.038574 
	C151.917892,123.854721 153.579285,125.573402 154.936478,127.505722 
	C158.662506,132.810715 162.855179,137.422989 169.090790,139.974884 
	C173.690582,141.857285 179.981476,140.376526 182.978195,136.248672 
	C184.809311,133.726379 186.821075,131.335236 189.552444,127.869019 
	C189.928009,132.377594 189.532455,135.884247 190.599472,138.867859 
	C193.621597,147.318466 193.402756,156.001282 192.870804,164.616959 
	C192.351517,173.027939 190.789734,181.372955 189.763519,189.756470 
	C189.650375,190.680679 190.049011,191.667511 190.210266,192.625305 
	C191.042725,192.349091 192.011490,192.259399 192.685715,191.766663 
	C197.392456,188.327011 202.038239,184.803955 206.620300,181.369995 
	C207.408951,187.781387 198.367279,197.586639 182.370819,207.909622 
	C183.653564,215.041229 184.844879,221.664627 186.213440,229.273438 
	C188.882645,229.688309 192.775528,230.149277 196.591934,230.967087 
	C197.874146,231.241837 198.961838,232.424438 200.002731,233.591522 
z"/>
<path fill="#0A060E" opacity="1.000000" stroke="none" 
	d="
M81.827759,133.593735 
	C86.816467,129.525208 92.350853,128.617065 98.613586,128.509949 
	C97.775238,131.499191 97.374435,133.199707 93.722191,133.474335 
	C90.064636,133.749359 86.573395,136.236099 83.161606,138.240906 
	C81.099747,137.866501 79.451218,136.600815 81.827759,133.593735 
z"/>
<path fill="#010001" opacity="1.000000" stroke="none" 
	d="
M85.648430,239.091339 
	C84.813438,239.502853 83.631783,239.879456 82.194160,240.058365 
	C83.059380,239.592590 84.180573,239.324524 85.648430,239.091339 
z"/>
<path fill="#010001" opacity="1.000000" stroke="none" 
	d="
M91.418243,239.721725 
	C91.240005,239.813156 90.885185,239.631302 90.278587,239.288849 
	C90.431770,239.234970 90.836716,239.341705 91.418243,239.721725 
z"/>
</svg>